<svg width="800" height="600" xmlns="http://www.w3.org/2000/svg">
 <g>
  <title>Layer 1</title>
  <path d="m292.98615,408.5c0,-1 0,-2 0,-5c0,-2 -0.49924,-8.95847 -1,-18c-0.22121,-3.99387 0,-8 0,-12c0,-4 0.31068,-8.00967 0,-13c-0.50096,-8.04669 -1.49756,-12.92578 -2,-18c-0.29561,-2.98541 0,-5 0,-10c0,-2 0,-6 0,-11c0,-3 -1,-7 -1,-9c0,-4 0,-8 0,-10c0,-2 0,-4 0,-7c0,-2 -0.32036,-5.02582 0,-7c0.50655,-3.12143 1.09544,-4.97736 2,-9c1.11867,-4.97479 2.98163,-10.71201 4,-16c0.37822,-1.9639 1,-4 2,-6c1,-2 2.19028,-2.88152 4,-6c1.12234,-1.93399 1.69255,-3.186 3,-5c0.8269,-1.14726 1.29289,-1.29289 2,-2c0.70711,-0.70711 2.31021,-2.71899 5,-6c2.28587,-2.78833 3.09789,-6.82443 5,-8c0.85065,-0.52573 2.4588,-1.69344 3,-3c0.38269,-0.92387 1.72398,-2.22273 5,-6c0.92659,-1.06837 1.09789,-2.82443 3,-4c0.85065,-0.52573 1.29289,-1.29289 2,-2c0.70711,-0.70711 2.11649,0.20514 4,-1c5.39359,-3.45099 7.69344,-5.4588 9,-6c1.84776,-0.76537 1.69344,-1.4588 3,-2c1.84776,-0.76537 2.82375,-1.48625 5,-2c0.97325,-0.22975 4.41208,-0.96855 8,-3c1.23065,-0.69678 1.82376,-1.48625 4,-2c0.97324,-0.22975 2.07611,0.38269 3,0c1.30655,-0.5412 2.02676,-1.77025 3,-2c2.17624,-0.51375 3,-1 4,-1c1,0 2.29291,0.70711 3,0c0.70709,-0.70711 1,-1 2,-1c1,0 1.69345,-0.4588 3,-1c1.84775,-0.76537 3,-1 6,-1c2,0 3,0 4,0c1,0 2.02676,0.22975 3,0c2.17624,-0.51375 3,-1 4,-1c1,0 2,0 3,0c1,0 2,0 4,0c1,0 2.02676,0.22975 3,0c2.17624,-0.51375 3,-1 4,-1c1,0 3,0 4,0c1,0 2,0 3,0c1,0 2,0 3,0c1,0 2,0 3,0c2,0 3,0 4,0c1,0 2,0 3,0c1,0 2,0 3,0c2,0 3,0 4,0c1,0 2,0 3,0c1,0 2,0 3,0c1,0 2,0 3,0c1,0 2.07611,-0.38269 3,0c1.30655,0.5412 1.29291,1.29289 2,2c0.70709,0.70711 2.29291,0.29289 3,1c0.70709,0.70711 0.69345,1.4588 2,2c0.92389,0.38269 2,1 3,2c1,1 3.29291,1.29289 4,2c0.70709,0.70711 1.07611,1.61731 2,2c1.30655,0.5412 2.4588,1.69344 3,3c0.38269,0.92387 1,1 2,2c1,1 2,2 3,3c1,1 2.29291,1.29289 3,2c0.70709,0.70711 2,3 3,4c1,1 2.1731,2.85274 3,4c1.30746,1.814 1.69254,3.186 3,5c0.8269,1.14726 1.4588,1.69344 2,3c0.76538,1.84776 1,3 1,4c0,1 1.61731,3.07613 2,4c0.5412,1.30656 1.4588,1.69344 2,3c0.76538,1.84776 1.4588,2.69344 2,4c0.76538,1.84776 0.61731,3.07613 1,4c0.5412,1.30656 1.1731,2.85274 2,4c1.30746,1.814 0.69254,4.186 2,6c0.8269,1.14728 2,4 3,6c1,2 1.78986,5.07843 3,8c0.85571,2.06586 1.48627,5.82376 2,8c0.4595,1.9465 1.5405,5.0535 2,7c0.51373,2.17624 1,4 1,6c0,3 0,4 0,7c0,1 0,3 0,5c0,1 0,3 0,5c0,2 0,4 0,5c0,2 0,4 0,6c0,1 0,3 0,4c0,1 0,3 0,4c0,1 0,3 0,4c0,1 0,2 0,4c0,1 0,3 0,5c0,1 0,3 0,4c0,1 0,2 0,4c0,1 0,3 0,5c0,2 0,4 0,6c0,1 0,2 0,3c0,1 0,2 0,4c0,1 0,2 0,3c0,1 0,2 0,3c0,1 0,2 0,3c0,1 0,3 0,5c0,1 0,2 0,3c0,1 0,2 0,3c0,1 0,2 0,3c0,1 0,2 0,3c0,1 0,2 0,3c0,1 0,2 0,3c0,1 0,2 0,3c0,2 0,3 0,4c0,2 0,3 0,4c0,2 0,3 0,4c0,1 0,2 0,3c0,1 0,3 0,4c0,1 0,3 0,4c0,1 0,2 0,3c0,1 0,2 0,3c0,1 0,2 0,3c0,1 0,2 0,3c0,1 0,2 0,4c0,1 0,2 0,3c0,1 0,2 0,3c0,1 0,2 0,3c0,1 0.38269,2.07611 0,3c-0.5412,1.30655 -1.29291,-0.29291 -2,-1c-0.70709,-0.70709 -1.29291,-0.29291 -2,-1c-0.70709,-0.70709 -0.29291,-1.29291 -1,-2c-0.70709,-0.70709 0,-2 -1,-2c-1,0 -1.29291,-0.29291 -2,-1c-0.70709,-0.70709 -0.29291,-1.29291 -1,-2c-0.70709,-0.70709 -1.29291,-0.29291 -2,-1c-0.70709,-0.70709 -1.69345,-0.4588 -3,-1c-0.92389,-0.38269 -1.29291,-1.29291 -2,-2c-0.70709,-0.70709 -1.29291,-0.29291 -2,-1c-0.70709,-0.70709 -1.29291,-0.29291 -2,-1c-0.70709,-0.70709 -2.07611,0.38269 -3,0c-1.30655,-0.5412 -1.82376,-1.48627 -4,-2c-0.97324,-0.22977 -1.82376,-0.48627 -4,-1c-0.97324,-0.22977 -2.15225,0.76538 -4,0c-1.30655,-0.5412 -3.01291,-0.83981 -4,-1c-3.12143,-0.50653 -6,-1 -7,-1c-2,0 -5.01291,-0.83981 -6,-1c-3.12143,-0.50653 -5,-1 -7,-1c-3,0 -6,0 -9,0c-1,0 -3,0 -6,0c-2,0 -5,0 -6,0c-1,0 -3.82376,-0.48627 -6,-1c-2.91974,-0.68927 -5,0 -7,0c-2,0 -3,0 -6,0c-4,0 -7,0 -9,0c-4,0 -5,0 -7,0c-3,0 -6,0 -9,0c-2,0 -4.22836,1.14804 -7,0c-1.30655,-0.5412 -4,-1 -5,-1c-2,0 -3,0 -4,0c-2,0 -3.02676,0.22977 -4,0c-2.17624,-0.51373 -3,-1 -5,-1c-1,0 -4,0 -5,0c-1,0 -4,0 -8,0c-2,0 -3,0 -4,0c-2,0 -3,0 -4,0c-1,0 -2,0 -3,0c-1,0 -1.69344,0.4588 -3,1c-0.92387,0.38269 -2.02675,0.77023 -3,1c-2.17625,0.51373 -3,1 -4,1c-1,0 -1.82375,0.48627 -4,1c-0.97325,0.22977 -2,0 -3,0c-1,0 -2.29289,1.29291 -3,2c-0.70711,0.70709 -2.69344,0.4588 -4,1c-0.92387,0.38269 -2,1 -3,1c-1,0 -1.61731,0.07611 -2,1c-0.5412,1.30655 -1.69344,1.4588 -3,2c-0.92387,0.38269 -1.29289,0.29291 -2,1c-0.70711,0.70709 -1.29289,0.29291 -2,1c-0.70711,0.70709 -1.29289,1.29291 -2,2c-0.70711,0.70709 -2,0 -3,1c-1,1 -2.29289,0.29291 -3,1c-0.70711,0.70709 -0.29289,1.29291 -1,2c-0.70711,0.70709 -1,-1 -1,-2c0,-1 0.4588,-2.69345 1,-4c0.38269,-0.92389 0,-2 0,-3c0,-1 0,-2 0,-3c0,-1 0,-2 0,-3c0,-1 0,-2 0,-3c0,-1 0,-2 0,-3c0,-1 0,-2 0,-3c0,-1 0,-2 0,-3c0,-1 0,-2 0,-3c0,-1 0,-2 0,-3c0,-1 0,-2 0,-3c0,-1 0,-2 0,-3l0,-1l0,-1l0,-1" id="svg_3" stroke="#000" fill="none"/>
  <path d="m327,281.5c0,0 0,0 0,1c0,1 0,2 0,3c0,1 0,2 0,3c0,1 0,2 0,3c0,1 0,2 0,3c0,1 0,2 0,3c0,1 0,2 0,3c0,1 1.29291,0.29291 2,1c0.70709,0.70709 1.29291,0.29291 2,1c0.70709,0.70709 1,1 2,1c1,0 1.29291,0.29291 2,1c0.70709,0.70709 1.07611,0.61731 2,1c1.30655,0.5412 2.29291,0.29291 3,1c0.70709,0.70709 1,1 2,1c1,0 1.29291,0.29291 2,1c0.70709,0.70709 1,1 2,1c1,0 2,0 3,0c1,0 1,1 2,1c1,0 1,1 2,1c1,0 2,0 3,0c1,0 2.07611,0.61731 3,1c1.30655,0.5412 2,1 3,1c1,0 2,1 3,1c1,0 2.29291,-0.70709 3,0c0.70709,0.70709 1,1 2,1c1,0 1.69345,0.4588 3,1c0.92389,0.38269 2,1 3,1c1,0 2,1 3,1c1,0 1,1 2,1c1,0 2,1 3,2c1,1 1.29291,1.29291 2,2c0.70709,0.70709 1,1 2,2c1,1 1.4588,1.69345 2,3c0.38269,0.92389 1,1 1,2c0,1 1,2 1,3c0,1 0,2 0,3c0,1 0,2 0,3c0,1 0,2 0,3c0,1 0,2 0,3c0,1 0,2 0,3c0,2 1,3 1,4c0,1 0,2 0,3c0,1 0,2 0,3c0,1 1,1 1,2c0,1 0,2 0,3c0,1 1,2 1,4c0,1 0,2 0,3c0,1 0,2 0,3c0,1 0,2 0,3c0,1 0,2 0,3c0,1 0,2 0,3c0,1 0,2 0,3c0,1 0,2 0,3c0,1 0.29291,1.29291 1,2c0.70709,0.70709 0,2 0,3c0,1 0,2 0,3c0,1 0,3 0,5c0,1 0,3 0,5c0,1 0,4 0,5c0,2 0,3 0,4c0,2 0,3 0,4c0,2 0,3 0,4c0,1 0,2 0,3c0,1 0,2 0,3l0,1" id="svg_4" stroke="#000" fill="none"/>
  <path d="m415,429.5c0,0 0,0 0,-1c0,-1 0,-2 0,-3c0,-1 0,-2 0,-3c0,-1 0,-2 0,-3c0,-2 0,-3 0,-4c0,-1 0,-3 0,-4c0,-1 0,-2 0,-3c0,-1 0,-2 0,-3c0,-1 0,-2 0,-3c0,-3 0,-6 0,-8c0,-2 0,-4 0,-6c0,-1 0,-3 0,-4c0,-1 0,-2 0,-3c0,-1 0,0 0,-1c0,-1 0,-2 0,-4c0,-2 0,-4 0,-8c0,-3 0,-6 0,-7c0,-2 0,-4 0,-5c0,-1 0,-2 0,-3c0,-1 0,-2 0,-3c0,-1 0,-2 0,-3c0,-2 0,-3 0,-5c0,-1 0,-2 0,-3c0,-1 -0.70709,-2.29291 0,-3c0.70709,-0.70709 2.29291,0.70709 3,0c0.70709,-0.70709 0.4588,-1.69345 1,-3c0.38269,-0.92389 0.61731,-1.07611 1,-2c0.5412,-1.30655 1.4588,-1.69345 2,-3c0.38269,-0.92389 1,-1 1,-2c0,-1 1.07611,-0.61731 2,-1c1.30655,-0.5412 1.29291,-1.29291 2,-2c0.70709,-0.70709 1.69345,-0.4588 3,-1c0.92389,-0.38269 1.29291,-0.29291 2,-1c0.70709,-0.70709 1.29291,-1.29291 2,-2c0.70709,-0.70709 1.29291,-0.29291 2,-1c0.70709,-0.70709 1.29291,-0.29291 2,-1c0.70709,-0.70709 2,0 3,0c1,0 2,0 3,0c1,0 2,0 3,0c1,0 2,0 4,0c1,0 2,0 4,0c1,0 1,-1 2,-1c1,0 1.29291,-0.29291 2,-1c0.70709,-0.70709 2,0 3,0c1,0 1,-1 2,-1c1,0 2.07611,-0.61731 3,-1c1.30655,-0.5412 1.29291,-1.29291 2,-2c0.70709,-0.70709 0.82376,-1.48627 3,-2c0.97324,-0.22977 1.29291,-0.29291 2,-1c0.70709,-0.70709 1.29291,-0.29291 2,-1c0.70709,-0.70709 1,-1 1,-2c0,-1 0.4588,-1.69345 1,-3c0.76538,-1.84775 2,-3 2,-4c0,-1 0,-2 0,-3c0,-1 0,-2 0,-3c0,-1 -1,-1 -1,-2c0,-1 0,-2 0,-3c0,-1 -1,-1 -2,-1c-2,0 -3,0 -4,0c-1,0 -2,0 -3,0c-1,0 -1.82376,0.48627 -4,1c-0.97324,0.22977 -2,0 -3,0c-1,0 -2,0 -3,0c-1,0 -2,0 -3,0c-1,0 -3,0 -4,0c-1,0 -3,0 -4,0c-3,0 -4,0 -6,0c-2,0 -3,0 -5,0c-2,0 -5.01291,-0.16019 -6,0c-3.12143,0.50653 -4.87857,1.49347 -8,2c-0.98709,0.16019 -3,0 -6,0c-1,0 -3,0 -4,0c-2,0 -3,0 -4,0c-1,0 -2,0 -4,0c-1,0 -2,0 -3,0c-2,0 -3,0 -4,0c-1,0 -2,0 -3,0c-2,0 -3,0 -4,0c-1,0 -2,0 -3,0c-1,0 -2,0 -3,0c-1,0 -2,0 -3,0c-1,0 -2,0 -3,0c-1,0 -2,0 -3,0c-1,0 -2,0 -3,0c-1,0 -2,0 -4,0c-1,0 -2,0 -3,0c-1,0 -2,0 -3,0c-1,0 -2,0 -3,0c-1,0 -2.15225,0.76538 -4,0c-1.30655,-0.5412 -2,-2 -3,-2c-2,0 -2.82376,-0.48627 -5,-1c-0.97324,-0.22977 -2,0 -3,0c-1,0 -2,0 -3,0c-1,0 -2,0 -3,0c-1,0 -2.29291,0.70709 -3,0c-0.70709,-0.70709 -1,-1 -2,-1c-1,0 -2.29291,0.70709 -3,0c-0.70709,-0.70709 -1.29291,-0.29291 -2,-1c-0.70709,-0.70709 -1,-1 -2,-1c-1,0 -2,0 -3,0l-1,0l-1,0" id="svg_5" stroke="#000" fill="none"/>
 </g>

</svg>